<?xml version="1.0" standalone="no"?>
<!DOCTYPE svg PUBLIC "-//W3C//DTD SVG 20010904//EN"
 "http://www.w3.org/TR/2001/REC-SVG-20010904/DTD/svg10.dtd">
<svg version="1.0" xmlns="http://www.w3.org/2000/svg"
 width="260.000000pt" height="260.000000pt" viewBox="0 0 260.000000 260.000000"
 preserveAspectRatio="xMidYMid meet">
<metadata>
Created by potrace 1.11, written by Peter Selinger 2001-2013
</metadata>
<g transform="translate(0.000000,260.000000) scale(0.100000,-0.100000)"
fill="#000000" stroke="none">
<path d="M1775 2218 c-22 -5 -215 -44 -428 -88 -214 -43 -390 -80 -391 -82 -1
-1 2 -117 8 -256 l11 -253 30 32 c41 44 149 112 216 137 206 76 409 68 599
-25 78 -38 109 -60 173 -125 46 -47 79 -74 82 -66 2 7 18 67 35 133 18 66 38
140 46 164 28 88 40 83 -185 75 l-199 -7 44 183 c24 100 44 184 44 186 0 6
-42 3 -85 -8z"/>
<path d="M1290 1354 c-103 -28 -193 -102 -222 -181 -14 -39 1 -35 -241 -71
-103 -16 -190 -32 -193 -35 -7 -6 -174 -752 -174 -774 0 -10 50 -13 221 -13
l222 0 -69 72 c-71 75 -129 172 -164 273 l-19 55 22 5 c45 11 417 85 425 85 5
0 19 -25 31 -55 31 -75 98 -147 162 -175 73 -31 190 -26 270 11 122 57 179
153 187 311 6 119 -9 199 -53 295 -80 173 -227 245 -405 197z"/>
</g>
</svg>
