<svg width="800" height="800" viewBox="0 0 800 800" fill="none" xmlns="http://www.w3.org/2000/svg">
<rect x="121" y="84" width="557" height="632" fill="white"/>
<path d="M708.571 57.1428H91.4283C72.4487 57.1428 57.1426 72.4491 57.1426 91.4285V708.571C57.1426 727.551 72.4487 742.857 91.4283 742.857H708.571C727.551 742.857 742.857 727.551 742.857 708.571V91.4285C742.857 72.4491 727.551 57.1428 708.571 57.1428ZM308.622 552.296H247.704V247.704H308.622V552.296ZM552.449 552.296H369.541V491.378H552.449V552.296ZM552.449 430.459H369.541V369.541H552.449V430.459ZM552.449 308.469H369.541V247.551H552.449V308.469Z" fill="#FF7BE5"/>
</svg>
