<svg width="31" height="32" viewBox="0 0 31 32" fill="none" xmlns="http://www.w3.org/2000/svg">
<mask id="mask0_45_119" style="mask-type:luminance" maskUnits="userSpaceOnUse" x="0" y="0" width="31" height="31">
<path d="M30.5 0.6875H0.5V30.6875H30.5V0.6875Z" fill="white"/>
</mask>
<g mask="url(#mask0_45_119)">
<path d="M11.707 5.50781L12.6284 3.12924C12.7838 2.72652 13.0572 2.38012 13.4128 2.13541C13.7684 1.8907 14.1896 1.75909 14.6213 1.75781H16.3784C16.8101 1.75909 17.2313 1.8907 17.5869 2.13541C17.9425 2.38012 18.2159 2.72652 18.3713 3.12924L19.2927 5.50781L22.4213 7.30781L24.9499 6.9221C25.3709 6.86495 25.7994 6.93426 26.181 7.12122C26.5625 7.30818 26.8799 7.60435 27.0927 7.9721L27.9499 9.4721C28.1695 9.8457 28.2707 10.2771 28.2401 10.7094C28.2095 11.1417 28.0485 11.5546 27.7784 11.8935L26.2142 13.8864V17.4864L27.8213 19.4792C28.0914 19.8182 28.2523 20.231 28.283 20.6633C28.3136 21.0956 28.2124 21.5271 27.9927 21.9007L27.1356 23.4007C26.9227 23.7684 26.6054 24.0646 26.2238 24.2515C25.8423 24.4385 25.4138 24.5078 24.9927 24.4507L22.4642 24.065L19.3356 25.865L18.4141 28.2435C18.2588 28.6462 17.9854 28.9926 17.6298 29.2374C17.2742 29.4821 16.853 29.6137 16.4213 29.615H14.6213C14.1896 29.6137 13.7684 29.4821 13.4128 29.2374C13.0572 28.9926 12.7838 28.6462 12.6284 28.2435L11.707 25.865L8.57844 24.065L6.04986 24.4507C5.62883 24.5078 5.20031 24.4385 4.81875 24.2515C4.4372 24.0646 4.11984 23.7684 3.90701 23.4007L3.04986 21.9007C2.83022 21.5271 2.72903 21.0956 2.75963 20.6633C2.79024 20.231 2.95121 19.8182 3.22129 19.4792L4.78558 17.4864V13.8864L3.17843 11.8935C2.90835 11.5546 2.74738 11.1417 2.71678 10.7094C2.68617 10.2771 2.78737 9.8457 3.00701 9.4721L3.86415 7.9721C4.07699 7.60435 4.39434 7.30818 4.7759 7.12122C5.15745 6.93426 5.58597 6.86495 6.00701 6.9221L8.53558 7.30781L11.707 5.50781Z" stroke="url(#paint0_linear_45_119)" stroke-width="1.5" stroke-linecap="round" stroke-linejoin="round"/>
<path d="M15.4999 22.115C19.0503 22.115 21.9284 19.2368 21.9284 15.6864C21.9284 12.136 19.0503 9.25781 15.4999 9.25781C11.9495 9.25781 9.07129 12.136 9.07129 15.6864C9.07129 19.2368 11.9495 22.115 15.4999 22.115Z" stroke="url(#paint1_linear_45_119)" stroke-width="1.5" stroke-linecap="round" stroke-linejoin="round"/>
<path d="M15.5 9.25781V15.6864H21.9286" stroke="url(#paint2_linear_45_119)" stroke-width="1.5" stroke-linecap="round" stroke-linejoin="round"/>
<path d="M15.4999 15.6875L10.957 20.2304" stroke="url(#paint3_linear_45_119)" stroke-width="1.5" stroke-linecap="round" stroke-linejoin="round"/>
</g>
<defs>
<linearGradient id="paint0_linear_45_119" x1="28.2817" y1="1.77653" x2="-2.37864" y2="9.55986" gradientUnits="userSpaceOnUse">
<stop stop-color="#02FE85"/>
<stop offset="1" stop-color="#0587FF"/>
</linearGradient>
<linearGradient id="paint1_linear_45_119" x1="21.925" y1="9.26645" x2="6.68443" y2="13.4803" gradientUnits="userSpaceOnUse">
<stop stop-color="#02FE85"/>
<stop offset="1" stop-color="#0587FF"/>
</linearGradient>
<linearGradient id="paint2_linear_45_119" x1="21.9269" y1="9.26213" x2="14.3066" y2="11.3691" gradientUnits="userSpaceOnUse">
<stop stop-color="#02FE85"/>
<stop offset="1" stop-color="#0587FF"/>
</linearGradient>
<linearGradient id="paint3_linear_45_119" x1="15.4987" y1="15.6906" x2="10.1136" y2="17.1795" gradientUnits="userSpaceOnUse">
<stop stop-color="#02FE85"/>
<stop offset="1" stop-color="#0587FF"/>
</linearGradient>
</defs>
</svg>
