<svg width="41" height="41" viewBox="0 0 41 41" fill="none" xmlns="http://www.w3.org/2000/svg">
<g clip-path="url(#clip0_45_191)">
<mask id="mask0_45_191" style="mask-type:luminance" maskUnits="userSpaceOnUse" x="0" y="0" width="41" height="41">
<path d="M40.5 0.5H0.5V40.5H40.5V0.5Z" fill="white"/>
</mask>
<g mask="url(#mask0_45_191)">
<path d="M25.5283 37.6429C27.2878 38.778 29.3845 39.2727 31.4658 39.0438C33.5472 38.8148 35.4862 37.8762 36.9569 36.3858L38.2426 35.1286C38.8063 34.5521 39.1219 33.7778 39.1219 32.9715C39.1219 32.1652 38.8063 31.3909 38.2426 30.8143L32.7854 25.4143C32.2137 24.8525 31.4442 24.5376 30.6426 24.5376C29.841 24.5376 29.0715 24.8525 28.4997 25.4143C27.9232 25.978 27.1489 26.2936 26.3426 26.2936C25.5363 26.2936 24.762 25.978 24.1854 25.4143L15.614 16.8429C15.3281 16.5611 15.101 16.2253 14.946 15.855C14.791 15.4847 14.7112 15.0872 14.7112 14.6858C14.7112 14.2843 14.791 13.8869 14.946 13.5165C15.101 13.1462 15.3281 12.8104 15.614 12.5286C16.1759 11.9569 16.4907 11.1874 16.4907 10.3858C16.4907 9.58416 16.1759 8.81463 15.614 8.24291L10.1854 2.81434C9.6089 2.25066 8.83461 1.93506 8.0283 1.93506C7.22199 1.93506 6.44771 2.25066 5.87116 2.81434L4.61402 4.10005C3.12358 5.57074 2.18497 7.50977 1.95603 9.5911C1.72708 11.6724 2.22176 13.7691 3.35688 15.5286C9.27129 24.245 16.7967 31.751 25.5283 37.6429Z" stroke="url(#paint0_linear_45_191)" stroke-width="1.5" stroke-linecap="round" stroke-linejoin="round"/>
</g>
</g>
<defs>
<linearGradient id="paint0_linear_45_191" x1="39.1122" y1="1.96003" x2="-4.99875" y2="14.175" gradientUnits="userSpaceOnUse">
<stop stop-color="#02FE85"/>
<stop offset="1" stop-color="#0587FF"/>
</linearGradient>
<clipPath id="clip0_45_191">
<rect width="40" height="40" fill="white" transform="translate(0.5 0.5)"/>
</clipPath>
</defs>
</svg>
