<svg width="81" height="81" viewBox="0 0 81 81" fill="none" xmlns="http://www.w3.org/2000/svg">
<path d="M26.2147 43.3594H20.5004C17.3445 43.3594 14.7861 45.9177 14.7861 49.0737V71.9308C14.7861 75.0867 17.3445 77.6451 20.5004 77.6451H26.2147C29.3706 77.6451 31.929 75.0867 31.929 71.9308V49.0737C31.929 45.9177 29.3706 43.3594 26.2147 43.3594Z" stroke="url(#paint0_linear_45_128)" stroke-width="1.5" stroke-linecap="round" stroke-linejoin="round"/>
<path d="M60.4999 43.3594H54.7856C51.6297 43.3594 49.0713 45.9177 49.0713 49.0737V71.9308C49.0713 75.0867 51.6297 77.6451 54.7856 77.6451H60.4999C63.6558 77.6451 66.2141 75.0867 66.2141 71.9308V49.0737C66.2141 45.9177 63.6558 43.3594 60.4999 43.3594Z" stroke="url(#paint1_linear_45_128)" stroke-width="1.5" stroke-linecap="round" stroke-linejoin="round"/>
<path d="M3.35742 54.7879V40.5022C3.35742 30.6513 7.27068 21.2039 14.2363 14.2383C21.202 7.27263 30.6494 3.35938 40.5003 3.35938C50.3512 3.35938 59.7986 7.27263 66.7642 14.2383C73.7299 21.2039 77.6431 30.6513 77.6431 40.5022V54.7879" stroke="url(#paint2_linear_45_128)" stroke-width="1.5" stroke-linecap="round" stroke-linejoin="round"/>
<defs>
<linearGradient id="paint0_linear_45_128" x1="31.9245" y1="43.3824" x2="10.4604" y2="46.3497" gradientUnits="userSpaceOnUse">
<stop stop-color="#02FE85"/>
<stop offset="1" stop-color="#0587FF"/>
</linearGradient>
<linearGradient id="paint1_linear_45_128" x1="66.2096" y1="43.3824" x2="44.7456" y2="46.3497" gradientUnits="userSpaceOnUse">
<stop stop-color="#02FE85"/>
<stop offset="1" stop-color="#0587FF"/>
</linearGradient>
<linearGradient id="paint2_linear_45_128" x1="77.6237" y1="3.39393" x2="-4.12589" y2="36.0425" gradientUnits="userSpaceOnUse">
<stop stop-color="#02FE85"/>
<stop offset="1" stop-color="#0587FF"/>
</linearGradient>
</defs>
</svg>
