<svg width="21" height="22" viewBox="0 0 21 22" fill="none" xmlns="http://www.w3.org/2000/svg">
<g clip-path="url(#clip0_45_62)">
<mask id="mask0_45_62" style="mask-type:luminance" maskUnits="userSpaceOnUse" x="0" y="0" width="21" height="21">
<path d="M20.5 0.521729H0.5V20.5217H20.5V0.521729Z" fill="white"/>
</mask>
<g mask="url(#mask0_45_62)">
<path d="M7.97166 3.73608L8.58595 2.15037C8.68955 1.88189 8.87181 1.65096 9.10888 1.48782C9.34594 1.32467 9.62675 1.23693 9.91452 1.23608H11.0859C11.3737 1.23693 11.6545 1.32467 11.8916 1.48782C12.1287 1.65096 12.3109 1.88189 12.4145 2.15037L13.0288 3.73608L15.1145 4.93608L16.8002 4.67894C17.0809 4.64084 17.3666 4.68705 17.621 4.81169C17.8753 4.93633 18.0869 5.13378 18.2288 5.37894L18.8002 6.37894C18.9467 6.62801 19.0141 6.91563 18.9937 7.20383C18.9733 7.49203 18.866 7.76727 18.6859 7.99323L17.6431 9.3218V11.7218L18.7145 13.0504C18.8946 13.2764 19.0019 13.5516 19.0223 13.8398C19.0427 14.128 18.9752 14.4156 18.8288 14.6647L18.2574 15.6647C18.1155 15.9099 17.9039 16.1073 17.6495 16.2319C17.3952 16.3566 17.1095 16.4028 16.8288 16.3647L15.1431 16.1076L13.0574 17.3076L12.4431 18.8933C12.3395 19.1617 12.1572 19.3927 11.9202 19.5558C11.6831 19.719 11.4023 19.8067 11.1145 19.8076H9.91452C9.62675 19.8067 9.34594 19.719 9.10888 19.5558C8.87181 19.3927 8.68955 19.1617 8.58595 18.8933L7.97166 17.3076L5.88595 16.1076L4.20023 16.3647C3.91954 16.4028 3.63386 16.3566 3.37949 16.2319C3.12513 16.1073 2.91355 15.9099 2.77166 15.6647L2.20023 14.6647C2.05381 14.4156 1.98634 14.128 2.00675 13.8398C2.02715 13.5516 2.13446 13.2764 2.31452 13.0504L3.35738 11.7218V9.3218L2.28595 7.99323C2.10589 7.76727 1.99858 7.49203 1.97818 7.20383C1.95777 6.91563 2.02524 6.62801 2.17166 6.37894L2.74309 5.37894C2.88498 5.13378 3.09655 4.93633 3.35092 4.81169C3.60529 4.68705 3.89097 4.64084 4.17166 4.67894L5.85738 4.93608L7.97166 3.73608Z" stroke="white" stroke-linecap="round" stroke-linejoin="round"/>
<path d="M10.5001 14.8076C12.867 14.8076 14.7858 12.8888 14.7858 10.5218C14.7858 8.15486 12.867 6.23608 10.5001 6.23608C8.13313 6.23608 6.21436 8.15486 6.21436 10.5218C6.21436 12.8888 8.13313 14.8076 10.5001 14.8076Z" stroke="white" stroke-linecap="round" stroke-linejoin="round"/>
<path d="M10.5 6.23608V10.5218H14.7857" stroke="white" stroke-linecap="round" stroke-linejoin="round"/>
<path d="M10.5003 10.5217L7.47168 13.5503" stroke="white" stroke-linecap="round" stroke-linejoin="round"/>
</g>
</g>
<defs>
<clipPath id="clip0_45_62">
<rect width="20" height="21" fill="white" transform="translate(0.5 0.5)"/>
</clipPath>
</defs>
</svg>
