<svg width="59" height="60" viewBox="0 0 59 60" fill="none" xmlns="http://www.w3.org/2000/svg">
<path d="M11.8589 44.1147C9.44219 41.4564 7.99219 38.5563 7.99219 33.7229C7.99219 25.2647 14.0339 17.7729 22.4922 13.9062L24.6672 17.0479C16.6922 21.3979 15.0005 26.9564 14.5172 30.5814C15.7255 29.8564 17.4172 29.6146 19.1089 29.8563C23.4589 30.3396 26.8422 33.723 26.8422 38.3147C26.8422 40.4897 25.8755 42.6647 24.4255 44.3563C22.7339 46.048 20.8005 46.7729 18.3839 46.7729C15.7255 46.7729 13.3089 45.5647 11.8589 44.1147ZM36.0255 44.1147C33.6089 41.4564 32.1589 38.5563 32.1589 33.7229C32.1589 25.2647 38.2005 17.7729 46.6589 13.9062L48.8339 17.0479C40.8589 21.3979 39.1672 26.9564 38.6839 30.5814C39.8922 29.8564 41.5839 29.6146 43.2755 29.8563C47.6255 30.3396 51.0089 33.723 51.0089 38.3147C51.0089 40.4897 50.0422 42.6647 48.5922 44.3563C47.1422 46.048 44.9672 46.7729 42.5505 46.7729C39.8922 46.7729 37.4755 45.5647 36.0255 44.1147Z" fill="#F8F8F8"/>
</svg>
