<svg width="61" height="61" viewBox="0 0 61 61" fill="none" xmlns="http://www.w3.org/2000/svg">
<path d="M6.92878 26.2144H11.2145C11.7828 26.2144 12.3279 26.4401 12.7297 26.842C13.1316 27.2438 13.3574 27.7889 13.3574 28.3572V39.0715C13.3574 39.6398 13.1316 40.1849 12.7297 40.5867C12.3279 40.9886 11.7828 41.2144 11.2145 41.2144H6.92878C5.79214 41.2144 4.70205 40.7628 3.89832 39.9591C3.0946 39.1554 2.64307 38.0653 2.64307 36.9286V30.5001C2.64307 29.3634 3.0946 28.2733 3.89832 27.4696C4.70205 26.6659 5.79214 26.2144 6.92878 26.2144Z" stroke="white" stroke-width="1.5" stroke-linecap="round" stroke-linejoin="round"/>
<path d="M54.0717 41.2144H49.786C49.2177 41.2144 48.6726 40.9886 48.2708 40.5867C47.8689 40.1849 47.6431 39.6398 47.6431 39.0715V28.3572C47.6431 27.7889 47.8689 27.2438 48.2708 26.842C48.6726 26.4401 49.2177 26.2144 49.786 26.2144H54.0717C55.2083 26.2144 56.2984 26.6659 57.1022 27.4696C57.9059 28.2733 58.3574 29.3634 58.3574 30.5001V36.9286C58.3574 38.0653 57.9059 39.1554 57.1022 39.9591C56.2984 40.7628 55.2083 41.2144 54.0717 41.2144Z" stroke="white" stroke-width="1.5" stroke-linecap="round" stroke-linejoin="round"/>
<path d="M41.2144 53.0001C43.4876 53.0001 45.6678 52.097 47.2753 50.4896C48.8827 48.8821 49.7858 46.7019 49.7858 44.4286V41.2144" stroke="white" stroke-width="1.5" stroke-linecap="round" stroke-linejoin="round"/>
<path d="M35.8575 47.6431C37.2783 47.6431 38.6409 48.2075 39.6456 49.2121C40.6502 50.2168 41.2146 51.5794 41.2146 53.0002C41.2146 54.421 40.6502 55.7836 39.6456 56.7883C38.6409 57.7929 37.2783 58.3574 35.8575 58.3574H29.4289C28.0081 58.3574 26.6455 57.7929 25.6408 56.7883C24.6362 55.7836 24.0718 54.421 24.0718 53.0002C24.0718 51.5794 24.6362 50.2168 25.6408 49.2121C26.6455 48.2075 28.0081 47.6431 29.4289 47.6431H35.8575Z" stroke="white" stroke-width="1.5" stroke-linecap="round" stroke-linejoin="round"/>
<path d="M11.2144 26.2145V21.9288C11.2144 16.8139 13.2462 11.9085 16.863 8.29172C20.4798 4.67495 25.3852 2.64307 30.5001 2.64307C35.615 2.64307 40.5204 4.67495 44.1371 8.29172C47.7539 11.9085 49.7858 16.8139 49.7858 21.9288V26.2145" stroke="white" stroke-width="1.5" stroke-linecap="round" stroke-linejoin="round"/>
<path d="M24.0718 17.6431V24.0716" stroke="white" stroke-width="1.5" stroke-linecap="round" stroke-linejoin="round"/>
<path d="M36.9287 17.6431V24.0716" stroke="white" stroke-width="1.5" stroke-linecap="round" stroke-linejoin="round"/>
<path d="M24.0718 32.6431C24.0718 38.3431 36.9289 38.3431 36.9289 32.6431" stroke="white" stroke-width="1.5" stroke-linecap="round" stroke-linejoin="round"/>
</svg>
