<svg width="61" height="61" viewBox="0 0 61 61" fill="none" xmlns="http://www.w3.org/2000/svg">
<path d="M46.1004 7.09998H14.9004C14.1811 7.11973 13.4766 7.30847 12.8437 7.65095C12.2109 7.99343 11.6675 8.48003 11.2576 9.0714L3.45757 19.8714C2.87839 20.6899 2.58914 21.6783 2.63572 22.6799C2.68231 23.6815 3.06206 24.6388 3.71472 25.4L27.1147 52.3571C27.5153 52.8733 28.0287 53.2911 28.6155 53.5784C29.2023 53.8658 29.847 54.0152 30.5004 54.0152C31.1538 54.0152 31.7986 53.8658 32.3854 53.5784C32.9722 53.2911 33.4855 52.8733 33.8861 52.3571L57.2861 25.4C57.9388 24.6388 58.3186 23.6815 58.3651 22.6799C58.4117 21.6783 58.1225 20.6899 57.5433 19.8714L49.7433 9.0714C49.3333 8.48003 48.79 7.99343 48.1571 7.65095C47.5243 7.30847 46.8197 7.11973 46.1004 7.09998Z" stroke="url(#paint0_linear_45_224)" stroke-width="1.5" stroke-linecap="round" stroke-linejoin="round"/>
<path d="M28.2716 7.05713L17.8145 23.2571L30.5002 53.9" stroke="url(#paint1_linear_45_224)" stroke-width="1.5" stroke-linecap="round" stroke-linejoin="round"/>
<path d="M32.8571 7.05713L43.2714 23.2571L30.5 53.9" stroke="url(#paint2_linear_45_224)" stroke-width="1.5" stroke-linecap="round" stroke-linejoin="round"/>
<path d="M2.72852 23.2571H58.2714" stroke="url(#paint3_linear_45_224)" stroke-width="1.5" stroke-linecap="round" stroke-linejoin="round"/>
<defs>
<linearGradient id="paint0_linear_45_224" x1="58.3554" y1="7.1315" x2="-5.84055" y2="28.2193" gradientUnits="userSpaceOnUse">
<stop stop-color="#02FE85"/>
<stop offset="1" stop-color="#0587FF"/>
</linearGradient>
<linearGradient id="paint1_linear_45_224" x1="30.4969" y1="7.08861" x2="14.4002" y2="8.29388" gradientUnits="userSpaceOnUse">
<stop stop-color="#02FE85"/>
<stop offset="1" stop-color="#0587FF"/>
</linearGradient>
<linearGradient id="paint2_linear_45_224" x1="43.2681" y1="7.08861" x2="27.0638" y2="8.31013" gradientUnits="userSpaceOnUse">
<stop stop-color="#02FE85"/>
<stop offset="1" stop-color="#0587FF"/>
</linearGradient>
<linearGradient id="paint3_linear_45_224" x1="58.2569" y1="23.2578" x2="57.9576" y2="27.8533" gradientUnits="userSpaceOnUse">
<stop stop-color="#02FE85"/>
<stop offset="1" stop-color="#0587FF"/>
</linearGradient>
</defs>
</svg>
