<svg width="25" height="25" viewBox="0 0 25 25" fill="none" xmlns="http://www.w3.org/2000/svg">
<g clip-path="url(#clip0_45_197)">
<mask id="mask0_45_197" style="mask-type:luminance" maskUnits="userSpaceOnUse" x="0" y="0" width="25" height="25">
<path d="M24.5 0.5H0.5V24.5H24.5V0.5Z" fill="white"/>
</mask>
<g mask="url(#mask0_45_197)">
<path d="M15.517 22.786C16.5727 23.4671 17.8307 23.7639 19.0795 23.6265C20.3283 23.4892 21.4917 22.926 22.3741 22.0318L23.1456 21.2775C23.4838 20.9315 23.6731 20.467 23.6731 19.9832C23.6731 19.4994 23.4838 19.0348 23.1456 18.6889L19.8713 15.4489C19.5282 15.1118 19.0665 14.9229 18.5856 14.9229C18.1046 14.9229 17.6429 15.1118 17.2998 15.4489C16.9539 15.7871 16.4893 15.9765 16.0056 15.9765C15.5218 15.9765 15.0572 15.7871 14.7113 15.4489L9.56841 10.306C9.39685 10.137 9.26061 9.93548 9.16762 9.71328C9.07463 9.49109 9.02674 9.25262 9.02674 9.01175C9.02674 8.77088 9.07463 8.53242 9.16762 8.31022C9.26061 8.08803 9.39685 7.88653 9.56841 7.71747C9.90553 7.37443 10.0944 6.91271 10.0944 6.43175C10.0944 5.95079 9.90553 5.48907 9.56841 5.14604L6.31127 1.88889C5.96534 1.55069 5.50077 1.36133 5.01698 1.36133C4.5332 1.36133 4.06863 1.55069 3.7227 1.88889L2.96841 2.66032C2.07415 3.54274 1.51098 4.70615 1.37362 5.95495C1.23625 7.20375 1.53305 8.46176 2.21413 9.51747C5.76277 14.7473 10.278 19.2509 15.517 22.786Z" stroke="white" stroke-width="1.5" stroke-linecap="round" stroke-linejoin="round"/>
</g>
</g>
<defs>
<clipPath id="clip0_45_197">
<rect width="24" height="24" fill="white" transform="translate(0.5 0.5)"/>
</clipPath>
</defs>
</svg>
