<svg width="31" height="31" viewBox="0 0 31 31" fill="none" xmlns="http://www.w3.org/2000/svg">
<g clip-path="url(#clip0_45_162)">
<path d="M11.707 5.32129L12.6284 2.94272C12.7838 2.54 13.0572 2.1936 13.4128 1.94889C13.7684 1.70418 14.1896 1.57256 14.6213 1.57129H16.3784C16.8101 1.57256 17.2313 1.70418 17.5869 1.94889C17.9425 2.1936 18.2159 2.54 18.3713 2.94272L19.2927 5.32129L22.4213 7.12129L24.9499 6.73557C25.3709 6.67843 25.7994 6.74773 26.181 6.9347C26.5625 7.12166 26.8799 7.41783 27.0927 7.78557L27.9499 9.28557C28.1695 9.65918 28.2707 10.0906 28.2401 10.5229C28.2095 10.9552 28.0485 11.3681 27.7784 11.707L26.2142 13.6999V17.2999L27.8213 19.2927C28.0914 19.6317 28.2523 20.0445 28.283 20.4768C28.3136 20.9091 28.2124 21.3405 27.9927 21.7141L27.1356 23.2141C26.9227 23.5819 26.6054 23.8781 26.2238 24.065C25.8423 24.252 25.4138 24.3213 24.9927 24.2641L22.4642 23.8784L19.3356 25.6784L18.4141 28.057C18.2588 28.4597 17.9854 28.8061 17.6298 29.0508C17.2742 29.2955 16.853 29.4272 16.4213 29.4284H14.6213C14.1896 29.4272 13.7684 29.2955 13.4128 29.0508C13.0572 28.8061 12.7838 28.4597 12.6284 28.057L11.707 25.6784L8.57844 23.8784L6.04986 24.2641C5.62883 24.3213 5.20031 24.252 4.81875 24.065C4.4372 23.8781 4.11984 23.5819 3.90701 23.2141L3.04986 21.7141C2.83022 21.3405 2.72903 20.9091 2.75963 20.4768C2.79024 20.0445 2.95121 19.6317 3.22129 19.2927L4.78558 17.2999V13.6999L3.17843 11.707C2.90835 11.3681 2.74738 10.9552 2.71678 10.5229C2.68617 10.0906 2.78737 9.65918 3.00701 9.28557L3.86415 7.78557C4.07699 7.41783 4.39434 7.12166 4.7759 6.9347C5.15745 6.74773 5.58597 6.67843 6.00701 6.73557L8.53558 7.12129L11.707 5.32129Z" stroke="white" stroke-width="1.5" stroke-linecap="round" stroke-linejoin="round"/>
<path d="M15.4999 21.9284C19.0503 21.9284 21.9284 19.0503 21.9284 15.4999C21.9284 11.9495 19.0503 9.07129 15.4999 9.07129C11.9495 9.07129 9.07129 11.9495 9.07129 15.4999C9.07129 19.0503 11.9495 21.9284 15.4999 21.9284Z" stroke="white" stroke-width="1.5" stroke-linecap="round" stroke-linejoin="round"/>
<path d="M15.5 9.07129V15.4999H21.9286" stroke="white" stroke-width="1.5" stroke-linecap="round" stroke-linejoin="round"/>
<path d="M15.4999 15.5L10.957 20.0429" stroke="white" stroke-width="1.5" stroke-linecap="round" stroke-linejoin="round"/>
</g>
<defs>
<clipPath id="clip0_45_162">
<rect width="30" height="30" fill="white" transform="translate(0.5 0.5)"/>
</clipPath>
</defs>
</svg>
