<svg width="62" height="61" viewBox="0 0 62 61" fill="none" xmlns="http://www.w3.org/2000/svg">
<path d="M37.4488 21.9289C39.8157 21.9289 41.7345 20.0101 41.7345 17.6431C41.7345 15.2762 39.8157 13.3574 37.4488 13.3574C35.0819 13.3574 33.1631 15.2762 33.1631 17.6431C33.1631 20.0101 35.0819 21.9289 37.4488 21.9289Z" stroke="url(#paint0_linear_45_245)" stroke-width="1.5" stroke-linecap="round" stroke-linejoin="round"/>
<path d="M20.3059 43.356C21.4894 43.356 22.4488 42.3966 22.4488 41.2132C22.4488 40.0297 21.4894 39.0703 20.3059 39.0703C19.1225 39.0703 18.1631 40.0297 18.1631 41.2132C18.1631 42.3966 19.1225 43.356 20.3059 43.356Z" stroke="url(#paint1_linear_45_245)" stroke-width="1.5" stroke-linecap="round" stroke-linejoin="round"/>
<path d="M20.3052 28.3566C22.6722 28.3566 24.591 26.4378 24.591 24.0709C24.591 21.7039 22.6722 19.7852 20.3052 19.7852C17.9383 19.7852 16.0195 21.7039 16.0195 24.0709C16.0195 26.4378 17.9383 28.3566 20.3052 28.3566Z" stroke="url(#paint2_linear_45_245)" stroke-width="1.5" stroke-linecap="round" stroke-linejoin="round"/>
<path d="M41.8199 53.1283C41.7722 52.297 41.4833 51.4976 40.9885 50.8279C40.4938 50.1581 39.8147 49.6469 39.0342 49.3569C37.0958 48.7198 35.4482 47.4121 34.3877 45.6689C33.3273 43.9257 32.9234 41.8614 33.2488 39.8471C33.5742 37.8328 34.6075 36.0006 36.1629 34.68C37.7183 33.3594 39.6938 32.637 41.7342 32.6426H49.7485C51.123 32.6464 52.4784 32.3196 53.7001 31.6897C54.9219 31.0598 55.9742 30.1454 56.7684 29.0234C57.5626 27.9015 58.0753 26.6051 58.2632 25.2434C58.4512 23.8818 58.309 22.4949 57.8485 21.1997C56.1439 16.3867 53.1493 12.1348 49.1918 8.9085C45.2344 5.68218 40.4663 3.6056 35.4086 2.90561C30.3509 2.20563 25.198 2.90917 20.5131 4.93938C15.8281 6.96959 11.7913 10.2484 8.84355 14.4175C5.89584 18.5866 4.15066 23.4857 3.7987 28.5795C3.44673 33.6732 4.50151 38.7658 6.8478 43.3007C9.19409 47.8356 12.7416 51.6385 17.1028 54.2937C21.464 56.949 26.4711 58.3546 31.5771 58.3569C34.0986 58.3639 36.6087 58.0177 39.0342 57.3283C39.9251 57.0787 40.6965 56.5172 41.2079 55.7462C41.7192 54.9752 41.9365 54.0461 41.8199 53.1283Z" stroke="url(#paint3_linear_45_245)" stroke-width="1.5" stroke-linecap="round" stroke-linejoin="round"/>
<defs>
<linearGradient id="paint0_linear_45_245" x1="41.7323" y1="13.3632" x2="31.5719" y2="16.1724" gradientUnits="userSpaceOnUse">
<stop stop-color="#02FE85"/>
<stop offset="1" stop-color="#0587FF"/>
</linearGradient>
<linearGradient id="paint1_linear_45_245" x1="22.4477" y1="39.0732" x2="17.3675" y2="40.4778" gradientUnits="userSpaceOnUse">
<stop stop-color="#02FE85"/>
<stop offset="1" stop-color="#0587FF"/>
</linearGradient>
<linearGradient id="paint2_linear_45_245" x1="24.5888" y1="19.7909" x2="14.4283" y2="22.6002" gradientUnits="userSpaceOnUse">
<stop stop-color="#02FE85"/>
<stop offset="1" stop-color="#0587FF"/>
</linearGradient>
<linearGradient id="paint3_linear_45_245" x1="58.3295" y1="2.68002" x2="-6.58657" y2="20.2732" gradientUnits="userSpaceOnUse">
<stop stop-color="#02FE85"/>
<stop offset="1" stop-color="#0587FF"/>
</linearGradient>
</defs>
</svg>
